# xmcd
#
# Track frame offsets: 
#        150
#        18555
#        42360
#        62592
#        83035
#        103585
#        122532
#        140420
#        157780
#        175675
#
# Disc length: 2593 seconds
#
# Revision: 20
# Processed by: cddbd v1.5.2PL0 Copyright (c) Steve Scherf et al.
# Submitted via: ExactAudioCopyFreeDBPlugin 1.0
#
DISCID=730a1f0a
DTITLE=周杰倫 - 八度空間
DYEAR=2002
DGENRE=Pop
TTITLE0=半獸人
TTITLE1=半島鐵盒
TTITLE2=暗號
TTITLE3=龍拳
TTITLE4=火車叨位去
TTITLE5=分裂
TTITLE6=爺爺泡的茶
TTITLE7=回到過去
TTITLE8=米蘭的小鐵匠
TTITLE9=最後的戰役
EXTD=YEAR: 2002
EXTT0=
EXTT1=
EXTT2=
EXTT3=
EXTT4=
EXTT5=
EXTT6=
EXTT7=
EXTT8=
EXTT9=
PLAYORDER=
